<svg width="168" height="168" viewBox="0 0 168 168" fill="none" xmlns="http://www.w3.org/2000/svg">
<path d="M84.0003 0.666672C38.0003 0.666672 0.666992 38 0.666992 84C0.666992 130 38.0003 167.333 84.0003 167.333C130 167.333 167.334 130 167.334 84C167.334 38 130 0.666672 84.0003 0.666672ZM84.0003 25.6667C97.8337 25.6667 109 36.8333 109 50.6667C109 64.5 97.8337 75.6667 84.0003 75.6667C70.167 75.6667 59.0003 64.5 59.0003 50.6667C59.0003 36.8333 70.167 25.6667 84.0003 25.6667ZM84.0003 144C74.0992 144 64.3519 141.55 55.6276 136.868C46.9034 132.186 39.4735 125.418 34.0003 117.167C34.2503 100.583 67.3337 91.5 84.0003 91.5C100.584 91.5 133.75 100.583 134 117.167C128.527 125.418 121.097 132.186 112.373 136.868C103.649 141.55 93.9015 144 84.0003 144Z" fill="white"/>
</svg>
