<svg width="184" height="100" viewBox="0 0 184 100" fill="none" xmlns="http://www.w3.org/2000/svg">
<path d="M0.333008 0L12.833 12.5L0.333008 25L12.833 37.5L0.333008 50L12.833 62.5L0.333008 75H16.9997C16.9997 81.6304 19.6336 87.9893 24.322 92.6777C29.0104 97.3661 35.3693 100 41.9997 100C48.6301 100 54.9889 97.3661 59.6773 92.6777C64.3658 87.9893 66.9997 81.6304 66.9997 75H117C117 81.6304 119.634 87.9893 124.322 92.6777C129.01 97.3661 135.369 100 142 100C148.63 100 154.989 97.3661 159.677 92.6777C164.366 87.9893 167 81.6304 167 75H183.666V16.6667C183.666 7.41667 176.25 0 167 0H0.333008ZM25.333 12.5H46.1663V33.3333H25.333V12.5ZM58.6663 12.5H91.9997V33.3333H58.6663V12.5ZM104.5 12.5H137.833V33.3333H104.5V12.5ZM150.333 12.5H171.166V58.3333L150.333 41.6667V12.5ZM41.9997 62.5C45.3149 62.5 48.4943 63.817 50.8385 66.1612C53.1827 68.5054 54.4997 71.6848 54.4997 75C54.4997 78.3152 53.1827 81.4946 50.8385 83.8388C48.4943 86.183 45.3149 87.5 41.9997 87.5C38.6845 87.5 35.505 86.183 33.1608 83.8388C30.8166 81.4946 29.4997 78.3152 29.4997 75C29.4997 71.6848 30.8166 68.5054 33.1608 66.1612C35.505 63.817 38.6845 62.5 41.9997 62.5V62.5ZM142 62.5C145.315 62.5 148.494 63.817 150.838 66.1612C153.183 68.5054 154.5 71.6848 154.5 75C154.5 78.3152 153.183 81.4946 150.838 83.8388C148.494 86.183 145.315 87.5 142 87.5C138.684 87.5 135.505 86.183 133.161 83.8388C130.817 81.4946 129.5 78.3152 129.5 75C129.5 71.6848 130.817 68.5054 133.161 66.1612C135.505 63.817 138.684 62.5 142 62.5Z" fill="white"/>
</svg>
